# xmcd CD database file
#
# Track frame offsets:
#	150
#	19952
#	41705
#
# Disc length: 808 seconds
#
# Revision: 0
# Processed by: cddbd v1.5.2PL0 Copyright (c) Steve Scherf et al.
# Submitted via: CDex 1.51
#
DISCID=20032603
DTITLE=Chris Whitley - Big Sky Country (Single)
DYEAR=1991
DGENRE=Blues
TTITLE0=Big Sky Country (Edit)
TTITLE1=Phone Call from Leavenworth
TTITLE2=Kick the Stones
EXTD=YEAR: 1991
EXTT0=
EXTT1=
EXTT2=
PLAYORDER=
